<svg width="69" height="74" viewBox="0 0 69 74" fill="none" xmlns="http://www.w3.org/2000/svg">
<path d="M13.572 16.888C13.572 17.56 13.2 18.172 12.456 18.724C11.712 19.3 10.572 19.984 9.036 20.776C7.788 21.424 6.78 21.988 6.012 22.468C5.244 22.948 4.584 23.5 4.032 24.124C3.504 24.772 3.24 25.468 3.24 26.212C3.24 27.076 3.6 28 4.32 28.984C5.04 29.968 5.928 30.796 6.984 31.468C8.04 32.14 9.024 32.476 9.936 32.476C11.04 32.476 12.312 32.332 13.752 32.044C15.216 31.78 16.272 31.48 16.92 31.144V25.6H15.552C14.784 27.088 13.896 28.24 12.888 29.056C11.88 29.896 10.848 30.316 9.792 30.316C9.048 30.316 8.448 30.112 7.992 29.704C7.536 29.32 7.308 28.828 7.308 28.228C7.308 27.484 7.692 26.812 8.46 26.212C9.252 25.636 10.44 24.952 12.024 24.16C13.248 23.536 14.232 22.996 14.976 22.54C15.72 22.084 16.344 21.544 16.848 20.92C17.376 20.32 17.64 19.648 17.64 18.904C17.64 18.016 17.256 17.08 16.488 16.096C15.744 15.136 14.82 14.32 13.716 13.648C12.636 12.976 11.64 12.64 10.728 12.64C9.552 12.64 8.148 12.772 6.516 13.036C4.908 13.324 3.756 13.636 3.06 13.972V19.516H4.428C5.268 18.028 6.264 16.864 7.416 16.024C8.568 15.208 9.732 14.8 10.908 14.8C11.7 14.8 12.336 15.004 12.816 15.412C13.32 15.82 13.572 16.312 13.572 16.888Z" fill="#D1CB37"/>
<path d="M44.144 44.7163H36.848V43.9723L39.104 42.1963V28.9243L32.696 44.7163H31.376L25.016 28.7563V42.4843L27.536 43.7563L27.056 44.7163H21.44V43.9723L23.696 42.1963V28.1323L21.2 26.7883L21.68 25.8283H26.888L32.888 40.9003L38.864 25.8283H44.384V26.5723L42.104 28.3483V42.8683L44.624 43.7563L44.144 44.7163Z" fill="#D1CB37"/>
<path d="M24.914 16.4645C25.2967 16.4645 25.74 16.5205 26.244 16.6325C26.7573 16.7351 27.126 16.8518 27.35 16.9825V19.1385H26.818C26.454 18.6718 26.034 18.3078 25.558 18.0465C25.0913 17.7758 24.606 17.6405 24.102 17.6405C23.6727 17.6405 23.346 17.8318 23.122 18.2145C22.9073 18.5971 22.8 19.1571 22.8 19.8945C22.8 20.7718 22.9913 21.5091 23.374 22.1065C23.7567 22.6945 24.3027 22.9885 25.012 22.9885C25.544 22.9885 26.3 22.6058 27.28 21.8405L27.7 22.3725L25.544 24.0665C25.1707 24.1411 24.7227 24.1785 24.2 24.1785C23.584 24.1785 23.0287 24.0198 22.534 23.7025C22.0487 23.3758 21.666 22.9371 21.386 22.3865C21.1153 21.8358 20.98 21.2291 20.98 20.5665C20.98 19.8478 21.1807 19.1711 21.582 18.5365C21.9927 17.9018 22.506 17.3978 23.122 17.0245C23.738 16.6511 24.3353 16.4645 24.914 16.4645ZM37.7419 24.0385H35.0819V19.3205C35.0819 18.8071 35.0026 18.4478 34.8439 18.2425C34.6853 18.0371 34.4006 17.9345 33.9899 17.9345C33.6819 17.9345 33.3739 17.9905 33.0659 18.1025C32.7673 18.2145 32.4126 18.4291 32.0019 18.7465V22.9885L33.2619 23.4785L32.9819 24.0385H29.0759V23.6045L30.3219 22.6245V14.0145L29.0759 13.1465V12.7125L31.4699 11.8165H32.0019V18.0885L33.9199 16.5765C34.1159 16.5018 34.3726 16.4645 34.6899 16.4645C35.3246 16.4645 35.8286 16.6605 36.2019 17.0525C36.5753 17.4351 36.7619 17.9578 36.7619 18.6205V22.9885L38.0219 23.4785L37.7419 24.0385ZM43.569 16.4645C44.185 16.4645 44.7357 16.6278 45.221 16.9545C45.7157 17.2718 46.0983 17.7058 46.369 18.2565C46.649 18.8071 46.789 19.4138 46.789 20.0765C46.789 20.7951 46.5697 21.4718 46.131 22.1065C45.6923 22.7318 45.1417 23.2358 44.479 23.6185C43.8257 23.9918 43.191 24.1785 42.575 24.1785C41.959 24.1785 41.4037 24.0198 40.909 23.7025C40.4237 23.3758 40.041 22.9371 39.761 22.3865C39.4903 21.8358 39.355 21.2291 39.355 20.5665C39.355 19.8478 39.5743 19.1758 40.013 18.5505C40.4517 17.9158 40.9977 17.4118 41.651 17.0385C42.3137 16.6558 42.953 16.4645 43.569 16.4645ZM42.757 17.6405C41.7023 17.6405 41.175 18.3918 41.175 19.8945C41.175 20.7811 41.3663 21.5231 41.749 22.1205C42.1317 22.7085 42.6777 23.0025 43.387 23.0025C44.4417 23.0025 44.969 22.2465 44.969 20.7345C44.969 19.8571 44.7777 19.1245 44.395 18.5365C44.0123 17.9391 43.4663 17.6405 42.757 17.6405ZM52.1636 24.0385H48.2576V23.6045L49.5036 22.6245V14.0145L48.2576 13.1465V12.7125L50.6516 11.8165H51.1836V22.9885L52.4436 23.4785L52.1636 24.0385ZM60.9995 24.0385H58.3395V22.8205L56.7575 24.0665C56.5709 24.1411 56.3375 24.1785 56.0575 24.1785C55.2549 24.1785 54.6715 23.9778 54.3075 23.5765C53.9529 23.1751 53.7755 22.6945 53.7755 22.1345C53.7755 21.7985 53.8969 21.4671 54.1395 21.1405C54.3822 20.8138 54.7275 20.5058 55.1755 20.2165H58.3395V19.3205C58.3395 18.7138 58.1762 18.2845 57.8495 18.0325C57.5322 17.7805 57.0935 17.6545 56.5335 17.6545C55.9549 17.6545 55.2455 18.0045 54.4055 18.7045L53.9855 18.1725L56.0015 16.5765C56.3749 16.5018 56.8229 16.4645 57.3455 16.4645C58.1949 16.4645 58.8529 16.6745 59.3195 17.0945C59.7862 17.5051 60.0195 18.1071 60.0195 18.9005V22.9885L61.2795 23.4785L60.9995 24.0385ZM56.5055 22.9885C57.0749 22.9885 57.6862 22.7271 58.3395 22.2045V20.7905H55.8615C55.7402 20.9398 55.6515 21.0891 55.5955 21.2385C55.5489 21.3878 55.5255 21.5511 55.5255 21.7285C55.5255 22.0738 55.6142 22.3725 55.7915 22.6245C55.9689 22.8671 56.2069 22.9885 56.5055 22.9885ZM67.4549 16.4785C67.7629 16.4785 68.0335 16.5625 68.2669 16.7305C68.5002 16.8985 68.6822 17.1318 68.8129 17.4305L67.8889 18.5925H67.3569C67.3195 18.3591 67.2495 18.1958 67.1469 18.1025C67.0535 17.9998 66.9229 17.9485 66.7549 17.9485C66.5495 17.9485 66.3302 18.0045 66.0969 18.1165C65.8729 18.2191 65.6162 18.4198 65.3269 18.7185V22.8905L67.2869 23.4925L67.0069 24.0525H62.4009V23.6185L63.6469 22.6385V18.6765L62.4009 17.9485V17.5145L64.7949 16.3385L65.2289 18.0605L66.6849 16.5765C66.8809 16.5018 67.1375 16.4645 67.4549 16.4645V16.4785Z" fill="#D13737"/>
<path d="M52.064 40.1154H49.404V38.8974L47.822 40.1434C47.6353 40.218 47.402 40.2554 47.122 40.2554C46.3193 40.2554 45.736 40.0547 45.372 39.6534C45.0173 39.252 44.84 38.7714 44.84 38.2114C44.84 37.8754 44.9613 37.544 45.204 37.2174C45.4467 36.8907 45.792 36.5827 46.24 36.2934H49.404V35.3974C49.404 34.7907 49.2407 34.3614 48.914 34.1094C48.5967 33.8574 48.158 33.7314 47.598 33.7314C47.0193 33.7314 46.31 34.0814 45.47 34.7814L45.05 34.2494L47.066 32.6534C47.4393 32.5787 47.8873 32.5414 48.41 32.5414C49.2593 32.5414 49.9173 32.7514 50.384 33.1714C50.8507 33.582 51.084 34.184 51.084 34.9774V39.0654L52.344 39.5554L52.064 40.1154ZM47.57 39.0654C48.1393 39.0654 48.7507 38.804 49.404 38.2814V36.8674H46.926C46.8047 37.0167 46.716 37.166 46.66 37.3154C46.6133 37.4647 46.59 37.628 46.59 37.8054C46.59 38.1507 46.6787 38.4494 46.856 38.7014C47.0333 38.944 47.2713 39.0654 47.57 39.0654ZM58.5193 32.5554C58.8273 32.5554 59.098 32.6394 59.3313 32.8074C59.5646 32.9754 59.7466 33.2087 59.8773 33.5074L58.9533 34.6694H58.4213C58.384 34.436 58.314 34.2727 58.2113 34.1794C58.118 34.0767 57.9873 34.0254 57.8193 34.0254C57.614 34.0254 57.3946 34.0814 57.1613 34.1934C56.9373 34.296 56.6806 34.4967 56.3913 34.7954V38.9674L58.3513 39.5694L58.0713 40.1294H53.4653V39.6954L54.7113 38.7154V34.7534L53.4653 34.0254V33.5914L55.8593 32.4154L56.2933 34.1374L57.7493 32.6534C57.9453 32.5787 58.202 32.5414 58.5193 32.5414V32.5554ZM64.7151 40.1434C64.5004 40.218 64.2391 40.2554 63.9311 40.2554C63.1564 40.2554 62.5871 40.0547 62.2231 39.6534C61.8684 39.2427 61.6911 38.6127 61.6911 37.7634V33.6754H60.1791V33.1014L62.8391 30.0074H63.3711V33.1014H65.8911V33.6754H63.3711V37.9314C63.3711 38.6874 63.7351 39.0654 64.4631 39.0654C64.6591 39.0654 64.8457 39.0234 65.0231 38.9394C65.2097 38.8554 65.4384 38.706 65.7091 38.4914L66.1291 39.0234L64.7151 40.1434Z" fill="#D13737"/>
</svg>
